<svg width="248" height="27" viewBox="0 0 248 27" fill="none" xmlns="http://www.w3.org/2000/svg">
<g clip-path="url(#clip0_707_154)">
<path d="M22.976 4.144H6.192L8.672 3.616L3.6 9.488L2.736 9.12L5.968 0.959999H6.544L9.072 2.656L7.2 2.192H23.84L21.648 2.656L25.232 0.959999H25.856L24.224 9.344H23.344L21.952 3.568L22.976 4.144ZM12.048 3.488H18.352L12.496 22.528L14.448 23.36L14.272 24H3.632L3.808 23.36L6.24 22.448L12.048 3.488ZM28.9275 19.664L27.5355 24H22.0155L27.9035 5.136C27.7115 4.89067 27.5035 4.656 27.2795 4.432C27.0662 4.19733 26.8315 3.96267 26.5755 3.728C26.3302 3.49333 26.0528 3.25333 25.7435 3.008L25.9835 2.192L34.3195 0.863998H34.8795L29.0075 17.68L28.8155 17.344C29.5728 15.648 30.2982 14.2507 30.9915 13.152C31.6848 12.0533 32.3622 11.2 33.0235 10.592C33.6848 9.984 34.3408 9.55733 34.9915 9.312C35.6422 9.06667 36.2982 8.944 36.9595 8.944C38.1755 8.944 39.0502 9.21067 39.5835 9.744C40.1168 10.2667 40.3835 10.9333 40.3835 11.744C40.3835 12.16 40.3248 12.64 40.2075 13.184C40.1008 13.728 39.8982 14.384 39.5995 15.152L36.6395 22.768L35.5035 21.44C36.0475 21.44 36.5755 21.36 37.0875 21.2C37.6102 21.04 38.1648 20.7627 38.7515 20.368C39.3382 19.9627 39.9942 19.4027 40.7195 18.688L41.2955 19.232C40.3995 20.4587 39.5088 21.4613 38.6235 22.24C37.7488 23.008 36.8742 23.5733 35.9995 23.936C35.1355 24.2987 34.2662 24.48 33.3915 24.48C32.3462 24.48 31.6475 24.2773 31.2955 23.872C30.9435 23.456 30.9168 22.8587 31.2155 22.08L33.8235 15.52C34.0582 14.9013 34.2182 14.4533 34.3035 14.176C34.3995 13.8987 34.4475 13.6747 34.4475 13.504C34.4475 13.2693 34.3835 13.088 34.2555 12.96C34.1275 12.8213 33.9408 12.752 33.6955 12.752C33.3648 12.752 33.0075 12.8853 32.6235 13.152C32.2395 13.408 31.8342 13.8133 31.4075 14.368C30.9915 14.9227 30.5702 15.6427 30.1435 16.528C29.7275 17.4027 29.3222 18.448 28.9275 19.664ZM51.187 10.496C50.8563 10.496 50.515 10.624 50.163 10.88C49.811 11.1253 49.4697 11.4773 49.139 11.936C48.819 12.3947 48.5363 12.9387 48.291 13.568C48.0457 14.1867 47.8483 14.8747 47.699 15.632C47.5497 16.3893 47.475 17.1893 47.475 18.032C47.475 19.0773 47.6937 19.8347 48.131 20.304C48.579 20.7627 49.203 20.992 50.003 20.992C50.6003 20.992 51.155 20.9067 51.667 20.736C52.179 20.5653 52.675 20.272 53.155 19.856C53.635 19.4293 54.115 18.8267 54.595 18.048H55.443C54.771 19.7653 54.0403 21.088 53.251 22.016C52.4723 22.944 51.6243 23.5893 50.707 23.952C49.8003 24.304 48.7923 24.48 47.683 24.48C46.3817 24.48 45.2937 24.2453 44.419 23.776C43.5443 23.3067 42.8883 22.6507 42.451 21.808C42.0243 20.9547 41.811 19.968 41.811 18.848C41.811 17.7707 41.971 16.7413 42.291 15.76C42.6217 14.768 43.091 13.8613 43.699 13.04C44.307 12.208 45.027 11.488 45.859 10.88C46.7017 10.2613 47.6243 9.78667 48.627 9.456C49.6403 9.11467 50.7177 8.944 51.859 8.944C53.043 8.944 53.9763 9.08267 54.659 9.36C55.3417 9.63733 55.8323 10.0107 56.131 10.48C56.4297 10.9493 56.579 11.472 56.579 12.048C56.579 12.6027 56.4777 13.136 56.275 13.648C56.083 14.16 55.8163 14.6133 55.475 15.008C54.8457 15.264 54.147 15.52 53.379 15.776C52.611 16.0213 51.8057 16.2613 50.963 16.496C50.131 16.7307 49.283 16.9547 48.419 17.168C47.5657 17.3707 46.7283 17.5573 45.907 17.728L45.971 16.48C46.9843 16.1173 47.843 15.776 48.547 15.456C49.251 15.136 49.8323 14.832 50.291 14.544C50.7497 14.2453 51.1017 13.952 51.347 13.664C51.5923 13.3653 51.763 13.056 51.859 12.736C51.9657 12.416 52.019 12.0693 52.019 11.696C52.019 11.4187 51.987 11.1947 51.923 11.024C51.859 10.8427 51.7683 10.7093 51.651 10.624C51.5337 10.5387 51.379 10.496 51.187 10.496ZM70.1203 18.464C70.1203 19.936 70.3709 20.9813 70.8723 21.6C71.3843 22.208 72.0989 22.512 73.0163 22.512C73.8269 22.512 74.6003 22.2933 75.3363 21.856C76.0829 21.408 76.7763 20.8 77.4163 20.032C78.0563 19.2533 78.6323 18.3733 79.1443 17.392C79.6563 16.4 80.0936 15.3493 80.4563 14.24C80.8296 13.1307 81.1123 12.0213 81.3043 10.912C81.5069 9.792 81.6083 8.73067 81.6083 7.728C81.6083 6.256 81.3523 5.216 80.8403 4.608C80.3389 3.98933 79.6296 3.68 78.7123 3.68C77.9016 3.68 77.1229 3.904 76.3763 4.352C75.6403 4.78933 74.9523 5.392 74.3123 6.16C73.6723 6.928 73.0963 7.808 72.5843 8.8C72.0723 9.792 71.6296 10.8427 71.2563 11.952C70.8936 13.0507 70.6109 14.16 70.4083 15.28C70.2163 16.4 70.1203 17.4613 70.1203 18.464ZM87.4963 10.208C87.4963 11.6587 87.2723 13.0827 86.8243 14.48C86.3763 15.8667 85.7309 17.168 84.8883 18.384C84.0563 19.5893 83.0536 20.6507 81.8803 21.568C80.7069 22.4747 79.3896 23.1893 77.9283 23.712C76.4776 24.224 74.9149 24.48 73.2403 24.48C71.2563 24.48 69.5976 24.1387 68.2643 23.456C66.9309 22.7733 65.9229 21.7973 65.2403 20.528C64.5683 19.2587 64.2323 17.744 64.2323 15.984C64.2323 14.5227 64.4563 13.0987 64.9043 11.712C65.3523 10.3253 65.9923 9.02933 66.8243 7.824C67.6669 6.608 68.6749 5.54133 69.8483 4.624C71.0216 3.70667 72.3336 2.992 73.7843 2.48C75.2456 1.968 76.8136 1.712 78.4883 1.712C80.4723 1.712 82.1309 2.05333 83.4643 2.736C84.7976 3.41866 85.8003 4.39467 86.4723 5.664C87.1549 6.93333 87.4963 8.448 87.4963 10.208ZM104.422 12.048C104.422 13.3173 104.208 14.56 103.782 15.776C103.366 16.9813 102.79 18.112 102.054 19.168C101.318 20.2133 100.47 21.136 99.5095 21.936C98.5495 22.7253 97.5148 23.3493 96.4055 23.808C95.3068 24.256 94.1868 24.48 93.0455 24.48C91.7228 24.48 90.7308 24.1707 90.0695 23.552C89.4082 22.9333 89.0775 22.0853 89.0775 21.008C89.0775 20.304 89.2108 19.5413 89.4775 18.72L91.4135 12.608C91.4135 12.5227 91.3922 12.4587 91.3495 12.416C91.3068 12.3627 91.2428 12.336 91.1575 12.336C90.7842 12.336 90.4482 12.4107 90.1495 12.56C89.8615 12.6987 89.5575 12.9867 89.2375 13.424C88.9282 13.8613 88.5495 14.5173 88.1015 15.392L87.3175 15.024C87.7655 13.8827 88.2242 12.928 88.6935 12.16C89.1735 11.392 89.6962 10.7787 90.2615 10.32C90.8375 9.85067 91.4775 9.51467 92.1815 9.312C92.8962 9.09867 93.7175 8.992 94.6455 8.992C95.1362 8.992 95.5788 9.008 95.9735 9.04C96.3682 9.06133 96.7362 9.09333 97.0775 9.136C97.4188 9.17867 97.7548 9.23733 98.0855 9.312L95.3495 18.032C95.2322 18.384 95.1415 18.7147 95.0775 19.024C95.0242 19.3333 94.9975 19.6107 94.9975 19.856C94.9975 20.3893 95.1255 20.7893 95.3815 21.056C95.6375 21.312 95.9948 21.44 96.4535 21.44C96.8695 21.44 97.3122 21.344 97.7815 21.152C98.2508 20.9493 98.7095 20.6667 99.1575 20.304C99.6055 19.9413 100.011 19.504 100.374 18.992C100.747 18.48 101.04 17.9147 101.254 17.296C101.478 16.6667 101.59 15.9947 101.59 15.28C101.59 14.736 101.478 14.2933 101.254 13.952C101.04 13.6 100.79 13.3013 100.502 13.056C100.214 12.8 99.9575 12.5547 99.7335 12.32C99.5202 12.0853 99.4135 11.8027 99.4135 11.472C99.4135 10.7893 99.6428 10.1973 100.102 9.696C100.571 9.19467 101.168 8.944 101.894 8.944C102.651 8.944 103.259 9.2 103.718 9.712C104.187 10.224 104.422 11.0027 104.422 12.048ZM114.251 10.496C113.92 10.496 113.579 10.624 113.227 10.88C112.875 11.1253 112.533 11.4773 112.203 11.936C111.883 12.3947 111.6 12.9387 111.355 13.568C111.109 14.1867 110.912 14.8747 110.763 15.632C110.613 16.3893 110.539 17.1893 110.539 18.032C110.539 19.0773 110.757 19.8347 111.195 20.304C111.643 20.7627 112.267 20.992 113.067 20.992C113.664 20.992 114.219 20.9067 114.731 20.736C115.243 20.5653 115.739 20.272 116.219 19.856C116.699 19.4293 117.179 18.8267 117.659 18.048H118.507C117.835 19.7653 117.104 21.088 116.315 22.016C115.536 22.944 114.688 23.5893 113.771 23.952C112.864 24.304 111.856 24.48 110.747 24.48C109.445 24.48 108.357 24.2453 107.483 23.776C106.608 23.3067 105.952 22.6507 105.515 21.808C105.088 20.9547 104.875 19.968 104.875 18.848C104.875 17.7707 105.035 16.7413 105.355 15.76C105.685 14.768 106.155 13.8613 106.763 13.04C107.371 12.208 108.091 11.488 108.923 10.88C109.765 10.2613 110.688 9.78667 111.691 9.456C112.704 9.11467 113.781 8.944 114.923 8.944C116.107 8.944 117.04 9.08267 117.723 9.36C118.405 9.63733 118.896 10.0107 119.195 10.48C119.493 10.9493 119.643 11.472 119.643 12.048C119.643 12.6027 119.541 13.136 119.339 13.648C119.147 14.16 118.88 14.6133 118.539 15.008C117.909 15.264 117.211 15.52 116.443 15.776C115.675 16.0213 114.869 16.2613 114.027 16.496C113.195 16.7307 112.347 16.9547 111.483 17.168C110.629 17.3707 109.792 17.5573 108.971 17.728L109.035 16.48C110.048 16.1173 110.907 15.776 111.611 15.456C112.315 15.136 112.896 14.832 113.355 14.544C113.813 14.2453 114.165 13.952 114.411 13.664C114.656 13.3653 114.827 13.056 114.923 12.736C115.029 12.416 115.083 12.0693 115.083 11.696C115.083 11.4187 115.051 11.1947 114.987 11.024C114.923 10.8427 114.832 10.7093 114.715 10.624C114.597 10.5387 114.443 10.496 114.251 10.496ZM123.853 12.608C123.853 12.5227 123.831 12.4587 123.789 12.416C123.757 12.3627 123.693 12.336 123.597 12.336C123.213 12.336 122.866 12.4053 122.557 12.544C122.247 12.672 121.927 12.9547 121.597 13.392C121.266 13.8187 120.877 14.4853 120.429 15.392L119.677 15.088C120.221 13.52 120.813 12.2933 121.453 11.408C122.103 10.512 122.823 9.88267 123.613 9.52C124.413 9.15733 125.298 8.976 126.269 8.976C126.717 8.976 127.111 8.98667 127.453 9.008C127.794 9.02933 128.13 9.06667 128.461 9.12C128.802 9.16267 129.191 9.232 129.629 9.328L127.101 18.048L126.973 17.488C127.901 15.3013 128.802 13.5893 129.677 12.352C130.551 11.104 131.389 10.224 132.189 9.712C132.989 9.2 133.751 8.944 134.477 8.944C135.319 8.944 135.954 9.168 136.381 9.616C136.818 10.064 137.037 10.672 137.037 11.44C137.037 12.0373 136.898 12.576 136.621 13.056C136.343 13.5253 135.97 13.8987 135.501 14.176C135.042 14.4533 134.53 14.592 133.965 14.592C133.709 14.592 133.506 14.5173 133.357 14.368C133.218 14.2187 133.074 13.9787 132.925 13.648C132.775 13.328 132.615 13.104 132.445 12.976C132.285 12.848 132.082 12.784 131.837 12.784C131.57 12.784 131.282 12.88 130.973 13.072C130.663 13.264 130.338 13.5627 129.997 13.968C129.655 14.3733 129.309 14.8907 128.957 15.52C128.605 16.1493 128.247 16.9013 127.885 17.776C127.533 18.6507 127.181 19.6533 126.829 20.784L125.821 24H120.301L123.853 12.608ZM152.005 21.872L150.677 22.816L155.685 17.472H156.709L154.165 23.552C153.194 23.7867 152.143 24 151.013 24.192C149.893 24.384 148.783 24.48 147.685 24.48C145.381 24.48 143.445 24.1173 141.877 23.392C140.319 22.6667 139.141 21.6587 138.341 20.368C137.551 19.0667 137.157 17.5627 137.157 15.856C137.157 14.2667 137.402 12.7627 137.893 11.344C138.383 9.91467 139.087 8.61333 140.005 7.44C140.922 6.26667 142.021 5.25333 143.301 4.4C144.591 3.536 146.037 2.87466 147.637 2.416C149.237 1.94667 150.959 1.712 152.805 1.712C153.509 1.712 154.181 1.73867 154.821 1.792C155.471 1.83467 156.111 1.92 156.741 2.048C157.381 2.176 158.021 2.35733 158.661 2.592L155.637 2.784L158.293 0.927999H158.885L158.517 9.6H157.557L155.189 3.312L156.677 5.536C156.122 4.896 155.546 4.42666 154.949 4.128C154.351 3.82933 153.663 3.68 152.885 3.68C151.775 3.68 150.741 3.888 149.781 4.304C148.821 4.70933 147.946 5.28533 147.157 6.032C146.378 6.768 145.706 7.64267 145.141 8.656C144.575 9.66933 144.143 10.784 143.845 12C143.546 13.216 143.397 14.496 143.397 15.84C143.397 17.2587 143.631 18.4587 144.101 19.44C144.581 20.4107 145.242 21.152 146.085 21.664C146.938 22.176 147.914 22.432 149.013 22.432C149.461 22.432 149.935 22.3893 150.437 22.304C150.938 22.208 151.461 22.064 152.005 21.872ZM167.643 8.944C169.008 8.944 170.149 9.19467 171.067 9.696C171.984 10.1867 172.672 10.88 173.131 11.776C173.589 12.6613 173.819 13.696 173.819 14.88C173.819 16.2347 173.568 17.4933 173.067 18.656C172.565 19.8187 171.867 20.8373 170.971 21.712C170.075 22.5867 169.045 23.2693 167.883 23.76C166.731 24.24 165.493 24.48 164.171 24.48C162.805 24.48 161.664 24.2347 160.747 23.744C159.829 23.2427 159.136 22.5493 158.667 21.664C158.208 20.768 157.979 19.728 157.979 18.544C157.979 17.1893 158.229 15.9307 158.731 14.768C159.243 13.5947 159.941 12.576 160.827 11.712C161.723 10.8373 162.752 10.16 163.915 9.68C165.077 9.18933 166.32 8.944 167.643 8.944ZM163.995 22.912C164.379 22.912 164.784 22.688 165.211 22.24C165.648 21.7813 166.069 21.168 166.475 20.4C166.891 19.632 167.264 18.7733 167.595 17.824C167.925 16.8747 168.192 15.904 168.395 14.912C168.597 13.92 168.699 12.976 168.699 12.08C168.699 11.4613 168.624 11.0453 168.475 10.832C168.325 10.6187 168.107 10.512 167.819 10.512C167.435 10.512 167.024 10.7413 166.587 11.2C166.16 11.648 165.739 12.256 165.323 13.024C164.917 13.792 164.544 14.6507 164.203 15.6C163.872 16.5387 163.605 17.504 163.403 18.496C163.211 19.488 163.115 20.432 163.115 21.328C163.115 21.9573 163.189 22.3787 163.339 22.592C163.488 22.8053 163.707 22.912 163.995 22.912ZM184.448 8.944C185.813 8.944 186.954 9.19467 187.872 9.696C188.789 10.1867 189.477 10.88 189.936 11.776C190.394 12.6613 190.624 13.696 190.624 14.88C190.624 16.2347 190.373 17.4933 189.872 18.656C189.37 19.8187 188.672 20.8373 187.776 21.712C186.88 22.5867 185.85 23.2693 184.688 23.76C183.536 24.24 182.298 24.48 180.976 24.48C179.61 24.48 178.469 24.2347 177.552 23.744C176.634 23.2427 175.941 22.5493 175.472 21.664C175.013 20.768 174.784 19.728 174.784 18.544C174.784 17.1893 175.034 15.9307 175.536 14.768C176.048 13.5947 176.746 12.576 177.632 11.712C178.528 10.8373 179.557 10.16 180.72 9.68C181.882 9.18933 183.125 8.944 184.448 8.944ZM180.8 22.912C181.184 22.912 181.589 22.688 182.016 22.24C182.453 21.7813 182.874 21.168 183.28 20.4C183.696 19.632 184.069 18.7733 184.4 17.824C184.73 16.8747 184.997 15.904 185.2 14.912C185.402 13.92 185.504 12.976 185.504 12.08C185.504 11.4613 185.429 11.0453 185.28 10.832C185.13 10.6187 184.912 10.512 184.624 10.512C184.24 10.512 183.829 10.7413 183.392 11.2C182.965 11.648 182.544 12.256 182.128 13.024C181.722 13.792 181.349 14.6507 181.008 15.6C180.677 16.5387 180.41 17.504 180.208 18.496C180.016 19.488 179.92 20.432 179.92 21.328C179.92 21.9573 179.994 22.3787 180.144 22.592C180.293 22.8053 180.512 22.912 180.8 22.912ZM203.333 0.863998L196.133 24H190.597L196.485 5.136C196.293 4.89067 196.085 4.656 195.861 4.432C195.647 4.19733 195.413 3.96267 195.157 3.728C194.911 3.49333 194.634 3.25333 194.325 3.008L194.565 2.192L202.789 0.863998H203.333ZM198.309 16.256L198.677 15.536C199.989 14.1813 201.13 13.0773 202.101 12.224C203.071 11.36 203.919 10.6933 204.645 10.224C205.37 9.744 206.015 9.41333 206.581 9.232C207.157 9.04 207.701 8.944 208.213 8.944C209.087 8.944 209.749 9.184 210.197 9.664C210.655 10.144 210.885 10.7147 210.885 11.376C210.885 11.9733 210.751 12.4853 210.485 12.912C210.229 13.3387 209.882 13.6693 209.445 13.904C209.007 14.128 208.533 14.24 208.021 14.24C207.743 14.24 207.514 14.1493 207.333 13.968C207.162 13.7867 207.007 13.4667 206.869 13.008C206.73 12.5493 206.57 12.2347 206.389 12.064C206.218 11.8827 206.005 11.792 205.749 11.792C205.439 11.792 205.093 11.8613 204.709 12C204.335 12.1387 203.93 12.3413 203.493 12.608C203.066 12.8747 202.618 13.2 202.149 13.584C201.69 13.968 201.231 14.4107 200.773 14.912L202.309 12.864C202.895 14.6347 203.386 16.0587 203.781 17.136C204.186 18.2027 204.527 19.0133 204.805 19.568C205.093 20.112 205.338 20.48 205.541 20.672C205.754 20.8533 205.951 20.944 206.133 20.944C206.325 20.944 206.538 20.8907 206.773 20.784C207.007 20.6667 207.29 20.4533 207.621 20.144C207.962 19.824 208.383 19.3653 208.885 18.768L209.477 19.248C208.741 20.4427 208.01 21.4293 207.285 22.208C206.559 22.976 205.834 23.5467 205.109 23.92C204.394 24.2933 203.674 24.48 202.949 24.48C202.575 24.48 202.218 24.3627 201.877 24.128C201.546 23.904 201.199 23.4987 200.837 22.912C200.485 22.3147 200.101 21.4827 199.685 20.416C199.279 19.3387 198.821 17.952 198.309 16.256ZM219.612 10.496C219.281 10.496 218.94 10.624 218.588 10.88C218.236 11.1253 217.895 11.4773 217.564 11.936C217.244 12.3947 216.961 12.9387 216.716 13.568C216.471 14.1867 216.273 14.8747 216.124 15.632C215.975 16.3893 215.9 17.1893 215.9 18.032C215.9 19.0773 216.119 19.8347 216.556 20.304C217.004 20.7627 217.628 20.992 218.428 20.992C219.025 20.992 219.58 20.9067 220.092 20.736C220.604 20.5653 221.1 20.272 221.58 19.856C222.06 19.4293 222.54 18.8267 223.02 18.048H223.868C223.196 19.7653 222.465 21.088 221.676 22.016C220.897 22.944 220.049 23.5893 219.132 23.952C218.225 24.304 217.217 24.48 216.108 24.48C214.807 24.48 213.719 24.2453 212.844 23.776C211.969 23.3067 211.313 22.6507 210.876 21.808C210.449 20.9547 210.236 19.968 210.236 18.848C210.236 17.7707 210.396 16.7413 210.716 15.76C211.047 14.768 211.516 13.8613 212.124 13.04C212.732 12.208 213.452 11.488 214.284 10.88C215.127 10.2613 216.049 9.78667 217.052 9.456C218.065 9.11467 219.143 8.944 220.284 8.944C221.468 8.944 222.401 9.08267 223.084 9.36C223.767 9.63733 224.257 10.0107 224.556 10.48C224.855 10.9493 225.004 11.472 225.004 12.048C225.004 12.6027 224.903 13.136 224.7 13.648C224.508 14.16 224.241 14.6133 223.9 15.008C223.271 15.264 222.572 15.52 221.804 15.776C221.036 16.0213 220.231 16.2613 219.388 16.496C218.556 16.7307 217.708 16.9547 216.844 17.168C215.991 17.3707 215.153 17.5573 214.332 17.728L214.396 16.48C215.409 16.1173 216.268 15.776 216.972 15.456C217.676 15.136 218.257 14.832 218.716 14.544C219.175 14.2453 219.527 13.952 219.772 13.664C220.017 13.3653 220.188 13.056 220.284 12.736C220.391 12.416 220.444 12.0693 220.444 11.696C220.444 11.4187 220.412 11.1947 220.348 11.024C220.284 10.8427 220.193 10.7093 220.076 10.624C219.959 10.5387 219.804 10.496 219.612 10.496ZM237.71 12.864C237.55 12.3733 237.31 11.9893 236.99 11.712C236.681 11.4347 236.265 11.296 235.742 11.296C235.262 11.296 234.771 11.504 234.27 11.92C233.779 12.336 233.305 12.88 232.846 13.552C232.387 14.224 231.977 14.9547 231.614 15.744C231.262 16.5227 230.979 17.2853 230.766 18.032C230.553 18.7787 230.446 19.424 230.446 19.968C230.446 20.3627 230.494 20.6293 230.59 20.768C230.697 20.9067 230.91 20.976 231.23 20.976C231.443 20.976 231.689 20.912 231.966 20.784C232.254 20.656 232.563 20.4533 232.894 20.176C233.225 19.888 233.561 19.52 233.902 19.072C234.254 18.624 234.606 18.08 234.958 17.44C235.31 16.8 235.651 16.0587 235.982 15.216L239.39 5.36C239.209 5.06133 239.001 4.77333 238.766 4.496C238.531 4.21867 238.286 3.95733 238.03 3.712C237.785 3.456 237.539 3.22133 237.294 3.008L237.518 2.192L245.886 0.863998H246.43L239.182 22.784L238.046 21.472C238.547 21.44 239.049 21.3387 239.55 21.168C240.051 20.9867 240.579 20.6933 241.134 20.288C241.699 19.8827 242.318 19.3067 242.99 18.56L243.598 19.072C242.393 20.9173 241.15 22.2827 239.87 23.168C238.59 24.0427 237.347 24.48 236.142 24.48C235.182 24.48 234.526 24.304 234.174 23.952C233.822 23.5893 233.769 23.0347 234.014 22.288L235.806 17.008H236.174C235.246 18.608 234.414 19.904 233.678 20.896C232.953 21.8773 232.281 22.6293 231.662 23.152C231.043 23.664 230.451 24.0107 229.886 24.192C229.321 24.384 228.745 24.48 228.158 24.48C227.454 24.48 226.83 24.3413 226.286 24.064C225.753 23.7973 225.331 23.408 225.022 22.896C224.723 22.3733 224.574 21.7547 224.574 21.04C224.574 20.0267 224.739 18.9653 225.07 17.856C225.411 16.736 225.886 15.6533 226.494 14.608C227.102 13.552 227.811 12.6027 228.622 11.76C229.443 10.9173 230.323 10.2453 231.262 9.744C232.211 9.24267 233.198 8.992 234.222 8.992C235.054 8.992 235.817 9.19467 236.51 9.6C237.203 9.99467 237.843 10.6933 238.43 11.696L237.71 12.864Z" fill="#FFC800"/>
</g>
<defs>
<clipPath id="clip0_707_154">
<rect width="248" height="27" fill="white"/>
</clipPath>
</defs>
</svg>
